<?xml version="1.0" encoding="UTF-8" standalone="no"?>
<!-- Created with Inkscape (http://www.inkscape.org/) -->

<svg
   width="210mm"
   height="297mm"
   viewBox="0 0 210 297"
   version="1.1"
   id="svg5"
   inkscape:version="1.1.2 (0a00cf5339, 2022-02-04)"
   sodipodi:docname="snapdeck_logo_full.svg"
   xmlns:inkscape="http://www.inkscape.org/namespaces/inkscape"
   xmlns:sodipodi="http://sodipodi.sourceforge.net/DTD/sodipodi-0.dtd"
   xmlns="http://www.w3.org/2000/svg"
   xmlns:svg="http://www.w3.org/2000/svg">
  <sodipodi:namedview
     id="namedview7"
     pagecolor="#ffffff"
     bordercolor="#666666"
     borderopacity="1.0"
     inkscape:pageshadow="2"
     inkscape:pageopacity="0.0"
     inkscape:pagecheckerboard="0"
     inkscape:document-units="mm"
     showgrid="false"
     inkscape:zoom="1.2505363"
     inkscape:cx="516.17852"
     inkscape:cy="454.20511"
     inkscape:window-width="3072"
     inkscape:window-height="1691"
     inkscape:window-x="3072"
     inkscape:window-y="0"
     inkscape:window-maximized="1"
     inkscape:current-layer="g67" />
  <defs
     id="defs2" />
  <g
     inkscape:label="Layer 1"
     inkscape:groupmode="layer"
     id="layer1">
    <g
       id="g67"
       transform="matrix(0.26458333,0,0,0.26458333,-36.574802,9.5192124)">
      <path
         d="m 142.56075,394.18536 v 394.44747 l 394.63931,-0.19337 394.6393,-0.19337 0.19338,-394.2541 0.19337,-394.25411368 H 537.39343 142.56075 V 394.18536 m 0.38212,0.38443 c 0,216.94569 0.0878,305.58141 0.19568,196.96758 0.10786,-108.61306 0.10786,-286.11408 0,-394.44671 -0.10785,-108.331863 -0.19568,-19.46656 -0.19568,197.47913 M 421.58095,110.14752 c -2.25343,2.39904 0.87749,23.8725 5.7318,39.31139 0.72495,2.30736 5.31194,3.8551 7.83732,2.64403 4.58082,-2.19488 4.20794,-6.56693 -3.31967,-38.94237 -1.08858,-4.68175 -7.03841,-6.43056 -10.24945,-3.01305 m -51.04002,12.02523 c -4.22027,4.22027 -4.19947,4.2534 15.31023,25.01886 14.58837,15.52749 15.81562,16.64226 18.33176,16.64226 3.27191,0 6.47833,-2.85126 6.47833,-5.76031 0,-2.15636 -0.35516,-2.58393 -17.62222,-21.20382 -17.67306,-19.05824 -17.95349,-19.2416 -22.4981,-14.69699 m 111.21779,8.88122 c -14.47049,4.52226 -19.12373,12.72167 -22.62444,39.86685 l -0.96378,7.47214 -3.91673,0.37981 c -2.15405,0.20955 -9.84422,0.69799 -17.08833,1.08473 -21.09288,1.12787 -30.63356,7.70173 -34.18666,23.55586 -0.72649,3.24263 1.35745,63.46509 5.33582,154.17705 0.40908,9.32188 1.11708,26.65597 1.57393,38.52019 1.43989,37.40233 2.15174,40.91691 9.9644,49.17718 9.2487,9.7795 10.76948,9.93127 71.3155,7.10928 24.15216,-1.12633 53.44676,-2.47531 65.09912,-2.99764 l 21.1861,-0.95068 25.80853,7.96752 c 41.35065,12.76636 44.11562,13.28022 54.39204,10.10615 10.23404,-3.16096 15.83796,-10.53681 20.70152,-27.24455 0.99074,-3.40365 6.14243,-21.0952 11.44743,-39.31525 5.30577,-18.22004 16.0606,-55.31498 23.901,-82.43319 7.83963,-27.11822 16.9381,-58.49291 20.21925,-69.72154 11.2217,-38.41079 6.17401,-51.84278 -21.29858,-56.66859 l -7.6555,-1.34435 0.46532,-3.95603 c 0.9476,-8.06843 -3.69871,-18.98968 -10.18551,-23.93721 -6.53533,-4.98451 -8.31728,-5.37434 -50.77037,-11.10537 -22.03355,-2.97453 -65.63455,-8.88507 -96.89137,-13.13461 -59.77794,-8.12622 -60.68008,-8.21713 -65.82869,-6.60775 m 0.45762,13.36111 c -6.40205,3.34432 -7.91204,6.47293 -10.1154,20.9596 l -1.81661,11.94126 2.44603,0.23343 c 2.12863,0.20262 49.4892,-1.89288 103.18248,-4.56541 22.50735,-1.12017 28.80463,-0.77426 34.36926,1.88903 7.26259,3.47606 16.05752,14.5275 16.08448,20.21231 0.007,1.48303 1.19182,1.76731 17.53439,4.21103 18.88799,2.8243 20.9935,3.61935 20.9935,7.92668 0,6.26724 -3.51227,6.89434 -22.3417,3.99069 -6.86892,-1.0593 -13.02676,-1.92601 -13.68237,-1.92601 -1.12942,0 -1.00153,18.70078 0.13636,19.8379 0.18721,0.18721 6.50452,1.312 14.03752,2.49919 14.97434,2.35974 16.45737,3.06543 16.45737,7.82884 0,6.03226 -2.42831,6.60159 -17.56752,4.11704 -6.45444,-1.05931 -12.09457,-1.92601 -12.53216,-1.92601 -0.52079,0 -0.64097,2.20412 -0.34822,6.35583 0.24653,3.49609 1.14328,23.34323 1.99304,44.10561 4.41364,107.8727 5.21794,124.60356 6.02995,125.41557 3.25495,3.25495 15.59913,7.7e-4 19.93034,-5.25339 3.68407,-4.46988 3.26189,-2.21568 13.69624,-73.16755 3.61396,-24.57588 8.82651,-59.93741 11.58379,-78.58118 15.2563,-103.15783 22.49887,-89.67499 -53.60161,-99.79116 -28.60124,-3.80195 -71.24309,-9.5091 -94.75966,-12.68239 -49.17872,-6.63703 -46.33747,-6.43749 -51.7095,-3.63091 m -129.92935,23.01581 c -3.07392,1.23727 -3.74725,7.37507 -1.0701,9.751 5.89128,5.22873 35.50637,15.02287 38.26133,12.65388 6.12317,-5.26725 3.11398,-8.20865 -16.75088,-16.37185 -14.89576,-6.12163 -17.96659,-7.02839 -20.44035,-6.03303 M 703.01867,203.428 c -0.20338,0.89213 -2.64402,17.04981 -5.42287,35.90544 -26.57276,180.26522 -24.88404,169.6637 -28.04655,176.0881 -5.1879,10.53912 -12.4998,14.58682 -26.34703,14.58682 h -9.75177 l -1.41909,2.6525 c -3.13246,5.85199 -8.91742,10.27873 -17.83407,13.6477 -4.8705,1.83973 33.49561,11.2217 38.85839,9.50216 9.68398,-3.10473 7.58771,2.17408 30.28072,-76.2638 52.53229,-181.57954 47.86133,-162.34333 41.28439,-170.02734 -4.44908,-5.19791 -20.75775,-9.79645 -21.60212,-6.09158 m -188.11949,39.95006 c -0.8667,0.95376 -4.43444,8.4937 -7.92745,16.75628 -7.91821,18.72851 -10.39198,23.6591 -12.12616,24.16987 -3.19409,0.94221 -11.54527,2.09627 -25.41639,3.51305 -25.55506,2.61012 -25.76076,4.40285 -2.832,24.67911 20.22156,17.88184 18.36719,12.20705 13.35418,40.85682 -3.30195,18.87027 -3.04772,20.8009 2.74186,20.8009 2.46067,0 19.60755,-10.07765 31.10197,-18.27937 7.36737,-5.25723 7.53455,-5.21948 26.65212,5.92903 26.43024,15.41346 28.19138,14.2517 21.1368,-13.93892 -2.16099,-8.63391 -4.10549,-17.60449 -4.32274,-19.93496 l -0.39368,-4.23722 15.11224,-14.5198 c 8.31189,-7.98601 15.31486,-15.32796 15.56293,-16.31561 1.31662,-5.24645 -1.75729,-6.92439 -13.94123,-7.61005 -34.03181,-1.91523 -31.72522,-0.6664 -42.10872,-22.80241 -10.42588,-22.22692 -12.03756,-24.0782 -16.59373,-19.06672 M 229.80897,510.09491 c -15.92347,3.61935 -25.51192,13.93968 -26.2307,28.23067 -0.93604,18.62143 7.18401,25.97262 36.97475,33.47481 16.37493,4.12398 21.41029,7.42901 21.41723,14.06064 0.0177,15.50515 -30.27225,17.14765 -38.37458,2.08009 l -2.07162,-3.85202 -9.51988,-0.21725 c -11.25945,-0.25654 -12.04834,0.0901 -11.37655,4.99222 4.98528,36.37153 75.49956,36.85765 82.22288,0.56778 3.59393,-19.39876 -6.12625,-28.58506 -38.21126,-36.11267 -15.15307,-3.55541 -20.03049,-7.16707 -20.03049,-14.83335 0,-13.9289 26.11745,-16.46892 34.20361,-3.32738 l 2.3767,3.86204 h 8.77181 c 10.3134,0 10.97594,-0.38058 10.22403,-5.87048 -2.3297,-16.99665 -27.11898,-28.34161 -50.37593,-23.0551 m 320.48795,0.52541 c -1.67717,1.69643 -1.37286,101.0685 0.3151,102.75645 1.85359,1.85359 44.42841,1.30353 51.49455,-0.66563 47.37367,-13.20241 50.09473,-83.9193 3.86897,-100.56311 -6.42748,-2.31429 -53.62087,-3.60934 -55.67862,-1.52771 m 259.58753,0.0493 c -1.33665,1.33665 -1.33665,101.58929 0,102.92594 0.97071,0.97071 16.33873,1.34666 18.65764,0.45685 1.02541,-0.39368 1.21878,-2.06469 1.21878,-10.52372 v -10.05531 l 4.42982,-4.69253 c 2.43679,-2.58008 4.62474,-4.78575 4.86279,-4.90054 0.23806,-0.11479 4.19947,6.12548 8.80263,13.86727 10.73019,18.04517 9.12235,16.77246 21.18611,16.77246 15.0221,0 15.24166,2.03387 -2.59703,-24.08821 l -13.55526,-19.85177 12.89579,-14.63304 c 15.75399,-17.87645 15.61454,-16.54134 1.72493,-16.54134 H 856.3398 l -13.09686,15.73472 -13.09687,15.73473 -0.20184,-29.5342 c -0.13868,-20.23619 -0.47149,-29.85853 -1.057,-30.565 -1.14096,-1.3744 -17.64224,-1.46684 -19.00278,-0.10631 m -238.98077,51.19872 -0.002,34.54721 12.53909,-0.3852 c 24.72071,-0.75962 35.97862,-13.03754 34.21594,-37.31604 -1.5123,-20.84019 -11.70243,-29.62434 -35.7737,-30.83926 l -10.97825,-0.55392 -0.002,34.54721 M 330.55775,537.89647 c -5.26956,1.47609 -9.63005,4.0215 -13.11535,7.65781 l -2.69642,2.81351 -0.3852,-4.48143 -0.3852,-4.48067 h -9.63005 -9.63004 l -0.20031,36.9293 c -0.15716,29.03266 0.008,37.06104 0.7704,37.54563 1.66254,1.05468 18.1276,0.77271 18.83715,-0.32357 0.34283,-0.52927 0.79659,-11.37424 1.00845,-24.099 0.49846,-29.95022 2.39596,-34.29607 14.95123,-34.24214 13.2702,0.057 15.01517,4.09239 15.06062,34.81686 0.0324,21.82554 0.10324,22.92952 1.52386,23.68991 2.12786,1.13866 17.22469,1.03466 18.38646,-0.12711 1.48842,-1.48842 1.29042,-53.03228 -0.22342,-58.13082 -3.90133,-13.13769 -20.22156,-21.50273 -34.27218,-17.56828 m 70.08825,0.21032 c -11.46207,2.9961 -22.30858,13.90501 -21.42724,21.54973 l 0.24113,2.09088 9.77566,0.21494 9.77565,0.21571 1.33665,-2.81659 c 5.01456,-10.56686 23.7839,-6.73025 25.4187,5.19483 l 0.47226,3.44524 -14.91502,0.83589 c -24.81778,1.38981 -33.30609,6.77493 -34.38234,21.81321 -1.58935,22.21691 29.12742,34.6127 46.19957,18.64377 l 3.6987,-3.45988 v 3.87513 c 0,4.75339 0.11788,4.8104 9.98367,4.8104 10.21863,0 9.39122,2.66714 9.12081,-29.39861 l -0.22958,-27.22606 -2.04003,-4.35124 C 437.36652,540.08981 418.69193,533.39038 400.646,538.10679 m 91.94999,0.19029 c -3.23877,1.02617 -5.97833,2.61783 -8.66704,5.03536 l -3.93137,3.53461 v -3.51073 c 0,-4.60856 -1.0308,-5.10624 -10.58072,-5.10624 -10.50677,0 -9.44978,-5.90129 -9.44978,52.77266 0,58.85499 -1.15406,52.77265 10.01525,52.77265 10.79875,0 10.01525,1.54081 10.01525,-19.69768 V 606.249 l 2.68563,2.53231 c 14.48359,13.6608 41.36991,7.61467 50.66021,-11.39196 15.99743,-32.72752 -9.10001,-69.12447 -40.74743,-59.09227 m 181.92853,-0.49075 c -35.20514,8.8296 -38.33298,62.75324 -4.41056,76.03268 17.88646,7.0022 47.90987,-3.29116 47.93452,-16.43348 0.008,-4.51302 -14.58914,-5.59313 -19.8795,-1.4707 -11.09073,8.64239 -27.41867,3.10858 -29.83619,-10.11232 l -0.5285,-2.88901 h 24.78928 c 29.57965,0 27.77382,0.5154 27.75842,-7.9236 -0.0478,-26.46183 -20.96115,-43.43999 -45.82747,-37.20357 m 80.12199,0.34129 c -35.78371,10.28258 -35.86923,67.31865 -0.11556,76.83853 17.75164,4.72642 37.44932,-3.15635 44.29898,-17.72854 3.30118,-7.023 2.05467,-8.16088 -8.94593,-8.16088 h -8.18014 l -3.51381,3.77575 c -14.92427,16.03826 -35.27679,-3.00458 -28.23068,-26.41484 4.01303,-13.33568 21.267,-16.65458 28.90093,-5.55923 l 2.4391,3.5454 h 8.38276 c 11.5653,0 12.53139,-1.13018 8.38507,-9.80801 -6.6324,-13.88268 -26.38478,-21.3841 -43.42072,-16.48818 m -77.04037,15.25014 c -4.97681,2.62323 -8.18708,7.06383 -9.26642,12.81567 l -0.53543,2.8528 h 16.26476 16.264 l -0.005,-1.73341 c -0.027,-11.1046 -12.99979,-19.06056 -22.72228,-13.93506 m -185.52478,1.76885 c -16.17231,5.19175 -16.26861,35.90158 -0.13174,42.06481 15.71162,5.99991 28.62744,-7.92822 25.03042,-26.9934 -2.31352,-12.26098 -13.1739,-18.83483 -24.89868,-15.07141 m -84.40466,27.71296 c -15.40499,1.2103 -13.03215,17.00281 2.55389,17.00281 8.69478,0 14.55601,-5.36201 15.17618,-13.88267 l 0.25115,-3.45141 -5.76493,-0.0878 c -3.17098,-0.0485 -8.66781,0.14021 -12.21629,0.4191"
         stroke="none"
         fill="#faf7f5"
         fill-rule="evenodd"
         id="path52"
         style="fill:#ffffff;stroke-width:0.770404" />
      <path
         d="m 421.79743,110.25615 c -2.68023,2.67946 2.79657,35.10652 6.78495,40.17732 3.0454,3.87205 9.8134,1.45837 9.8134,-3.4984 0,-20.25006 -10.28951,-42.98853 -16.59835,-36.67892 m -49.64096,10.65391 c -6.45213,3.26497 -5.05154,6.00144 12.92198,25.24228 15.7432,16.85258 17.5498,18.31789 21.39642,17.35257 7.58232,-1.9029 5.59082,-5.99682 -12.27715,-25.23534 -17.50434,-18.84716 -18.12837,-19.33868 -22.04125,-17.35951 m 110.17775,10.21709 c -13.85957,3.86435 -18.75857,11.46592 -22.31629,34.62657 l -2.01229,13.10303 -16.16076,0.82972 c -24.552,1.25961 -31.86929,5.06695 -37.43623,19.47427 -2.36514,6.12085 -1.95837,19.64452 6.30421,209.66152 1.86977,43.00547 6.9606,46.81512 59.27795,44.3583 15.03751,-0.70569 45.3683,-2.10936 67.40185,-3.11936 l 40.06099,-1.83664 25.80853,7.96289 c 41.20119,12.71089 42.11566,12.91351 50.51383,11.1801 13.99515,-2.88902 18.95424,-9.28337 26.00498,-33.53028 61.33954,-210.95195 61.05218,-209.91961 60.29025,-216.63676 -1.81353,-15.97817 -10.2379,-22.97036 -32.22676,-26.74688 l -2.88901,-0.49614 v -6.09928 c 0,-20.54821 -8.00064,-25.76539 -47.76503,-31.14357 -14.61841,-1.97763 -41.65958,-5.64398 -60.09149,-8.14779 -119.33477,-16.21161 -109.11536,-15.01517 -114.76473,-13.4397 m 1.13018,12.20551 c -7.22254,3.1548 -9.02066,6.64088 -11.56916,22.43416 -2.3451,14.53058 -6.76414,12.71397 26.97723,11.0915 111.6315,-5.3674 103.78879,-5.22565 110.8403,-1.99766 7.54841,3.45603 13.98514,10.87271 16.00436,18.44116 0.53698,2.01306 1.16485,3.66481 1.39443,3.67097 6.24336,0.1718 35.21593,5.53073 36.04719,6.66707 6.04382,8.26258 0.2319,10.43589 -19.9365,7.45597 l -15.30715,-2.26191 0.008,7.73871 c 0.005,4.25571 0.21109,8.96288 0.45916,10.459 l 0.44992,2.72184 13.97974,2.04696 c 15.16232,2.21953 16.7193,2.91367 16.66461,7.42592 -0.0693,5.75723 -3.16405,6.47139 -17.9065,4.13014 -14.84568,-2.35744 -13.20934,-7.57769 -11.32647,36.12577 0.88288,20.50198 2.55234,59.8804 3.70872,87.5063 1.15638,27.62668 2.31429,50.44219 2.57392,50.70181 2.69487,2.69488 14.07836,0.6795 18.44577,-3.26651 5.48836,-4.95755 5.58235,-5.30885 10.66701,-39.88457 1.74497,-11.86422 6.09544,-41.33216 9.6678,-65.48432 23.68915,-160.16231 30.09967,-138.18808 -43.15493,-147.92907 -27.11822,-3.60549 -52.77266,-7.05998 -57.00988,-7.6763 -59.4898,-8.65471 -87.85915,-11.78563 -91.67804,-10.11694 M 351.8289,168.51253 c -2.24958,1.76885 -2.76498,5.58235 -1.06701,7.89433 3.6494,4.97065 36.25982,15.6885 39.09799,12.85034 5.16555,-5.16556 2.48686,-7.59696 -17.31252,-15.71624 -17.80634,-7.30189 -17.82406,-7.30574 -20.71846,-5.02843 m 230.63191,16.17309 c -14.55062,0.76578 -70.21229,3.41212 -112.09375,5.32811 -47.70339,2.18333 -47.66641,2.17639 -52.77188,9.88428 -3.29271,4.97065 -3.4152,6.58927 -2.40828,31.71444 4.58544,114.41728 7.69248,187.73506 8.1917,193.28659 0.72649,8.08924 5.61624,14.83798 12.36421,17.06521 3.36666,1.11093 1.36516,1.17641 83.54489,-2.7434 30.71985,-1.46608 63.65461,-2.96914 73.18835,-3.34124 28.26612,-1.10322 32.40781,-4.76572 31.30305,-27.67984 -0.52311,-10.84343 -2.91521,-67.44962 -4.35278,-102.99681 -3.75572,-92.90068 -4.56156,-108.22786 -5.82348,-110.73398 -3.29579,-6.54689 -10.25254,-10.78334 -17.22238,-10.48828 -1.51153,0.0647 -7.77568,0.38135 -13.91965,0.70492 m 119.5343,23.63907 c -2.624,18.46658 -26.64056,180.10498 -28.28229,190.34442 -4.03461,25.17063 -16.72778,35.5341 -37.73823,30.81306 -2.17639,-0.48843 -2.4676,-0.28428 -4.17251,2.92908 -2.4599,4.63783 -9.17859,10.64236 -13.69701,12.24171 -2.01999,0.71494 -4.28498,1.52617 -5.03381,1.80198 -0.85977,0.3174 4.248,2.18178 13.86726,5.06309 30.95483,9.27027 33.49485,7.86968 42.5209,-23.43568 2.50381,-8.6863 12.23709,-42.31442 21.62831,-74.72916 40.38071,-139.37451 38.48475,-132.31068 36.99787,-137.83447 -0.99921,-3.71104 -5.87664,-9.47289 -9.08999,-10.73943 -1.77964,-0.70107 -13.88884,-3.19563 -15.51208,-3.19563 -0.29199,0 -0.96224,3.03385 -1.48842,6.74103 M 233.85359,509.51248 c -19.35562,2.56699 -31.26683,15.40731 -30.26993,32.63122 0.89906,15.53134 8.71404,22.03971 34.65276,28.86241 20.05515,5.27495 23.73691,7.62622 23.73691,15.15846 0,15.75938 -31.09658,16.80097 -38.9493,1.30507 l -1.90829,-3.76574 h -8.8974 c -11.01677,0 -12.23016,0.51309 -11.56222,4.88821 6.11162,40.01477 81.73291,35.84766 81.73291,-4.50301 0,-17.04826 -6.86892,-23.05356 -33.89777,-29.63512 -18.64223,-4.53921 -24.26771,-8.15164 -24.26771,-15.58603 0,-15.13998 27.92482,-16.98509 35.59496,-2.35128 l 1.31277,2.50382 h 8.36273 c 10.31493,0 11.40737,-0.55855 10.67086,-5.45985 -2.47454,-16.45814 -23.03584,-27.13594 -46.31128,-24.04816 m 316.75611,1.37826 c -2.16252,2.16252 -1.93063,100.48683 0.24191,102.4529 2.08548,1.88749 42.77898,1.31508 50.8582,-0.7157 48.30278,-12.14156 49.99073,-85.54255 2.32277,-101.00378 -6.315,-2.0485 -51.48762,-2.66868 -53.42288,-0.73342 m 259.56674,0.0593 c -1.81738,1.81738 -1.80044,100.56465 0.017,102.38203 1.51307,1.51384 17.17153,1.73495 18.643,0.26348 0.61709,-0.6171 0.9345,-4.13707 0.95453,-10.59305 l 0.0308,-9.66857 4.78421,-5.21332 4.78498,-5.2141 9.14315,15.37418 c 10.50599,17.66536 8.6732,16.23934 20.87101,16.23934 10.18473,0 12.13463,-0.67025 10.55222,-3.62706 -0.74421,-1.39058 -18.15149,-27.16366 -24.22997,-35.87539 l -3.10473,-4.44985 1.9237,-2.09858 c 26.66136,-29.08968 26.82623,-29.44868 13.52136,-29.44868 -12.48825,0 -10.25716,-1.49844 -25.59513,17.19078 l -12.32646,15.02057 -0.19568,-29.78073 c -0.17719,-26.90404 -0.32126,-29.87317 -1.49535,-30.74296 -2.02848,-1.50306 -16.72855,-1.30815 -18.2786,0.24191 M 570.5763,528.14391 c -0.23112,0.37441 -0.33821,15.88803 -0.23806,34.47556 l 0.18182,33.79607 7.31883,0.23344 c 26.98108,0.859 40.061,-10.41047 40.061,-34.5164 0,-19.12913 -9.65008,-31.41167 -26.60281,-33.86156 -6.65629,-0.96223 -20.15377,-1.04466 -20.72078,-0.12711 m -237.63334,9.44592 c -5.42133,0.88442 -12.64772,4.79037 -15.90499,8.59539 l -2.59857,3.03616 -0.23189,-4.90747 -0.23189,-4.90824 h -9.63005 -9.63004 l -0.20031,36.50635 c -0.23343,42.5987 -1.21262,38.60801 9.47674,38.60801 11.48286,0 10.36655,2.14172 10.38427,-19.92033 0.0262,-32.8685 2.59549,-39.35068 15.60992,-39.38843 13.4004,-0.0377 15.05446,3.65171 15.60221,34.79606 0.30046,17.07753 0.66024,23.45725 1.34744,23.8933 1.39905,0.88904 15.8318,0.74267 17.55211,-0.17797 2.02924,-1.08627 2.31275,-50.85126 0.32742,-57.53683 -3.85356,-12.97668 -17.50434,-20.94111 -31.87237,-18.596 m 69.60366,0.25346 c -9.99521,2.17639 -17.19849,7.35967 -21.11137,15.19005 -4.17559,8.35503 -3.50611,9.09924 8.184,9.09924 h 8.69632 l 1.98224,-3.14017 c 6.58465,-10.43126 25.76539,-5.73951 25.77001,6.30268 l 0.002,2.77807 -5.20023,0.49075 c -2.85973,0.27041 -7.97367,0.49614 -11.36345,0.5023 -21.67762,0.0401 -32.45249,8.00604 -32.30226,23.88252 0.19954,21.05513 29.63512,31.33694 46.14641,16.11761 l 3.48993,-3.2172 v 3.41134 c 0,5.05925 12.78023,8.09233 18.00357,4.27266 2.05698,-1.50382 1.53849,-52.94291 -0.59013,-58.55453 -5.10238,-13.44894 -23.64446,-21.06746 -41.70658,-17.13532 m 92.38451,-0.0462 c -4.88667,1.18565 -10.28027,4.28652 -12.92661,7.43054 l -2.0069,2.38517 -0.0116,-3.33277 c -0.0193,-5.26879 -0.51925,-5.61085 -8.62698,-5.89898 -3.93522,-0.13944 -8.1085,0.11171 -9.27335,0.55931 l -2.11861,0.81201 v 51.22414 c 0,59.35653 -1.23958,52.81888 10.01525,52.81888 10.808,0 10.01525,1.56931 10.01525,-19.82865 v -18.23391 l 2.88901,2.81274 c 16.20622,15.77633 45.36215,6.16477 52.77112,-17.39726 9.83574,-31.2807 -12.28255,-60.25481 -40.72662,-53.35122 m 179.80375,0.0585 c -37.92004,9.63698 -37.79601,67.41803 0.16564,77.11202 17.3387,4.42751 43.15185,-6.03381 43.15185,-17.48817 0,-4.20409 -14.6446,-5.60006 -19.1322,-1.82354 -11.58302,9.74637 -30.94404,2.3166 -30.94404,-11.87424 v -1.67023 l 25.53503,0.0832 c 29.62202,0.0963 27.09587,0.97841 26.57431,-9.27643 -1.28658,-25.29852 -21.69303,-41.07562 -45.35059,-35.06261 m 82.99328,-0.41448 c -39.25207,8.47906 -40.09335,69.25467 -1.07779,77.86162 17.84255,3.93599 37.09494,-4.9275 42.72582,-19.67149 l 1.39982,-3.66558 -1.77116,-1.43449 c -1.46222,-1.18411 -3.10858,-1.43449 -9.43513,-1.43449 h -7.66398 l -3.10318,3.40981 c -13.94123,15.31947 -33.1551,1.59627 -29.90168,-21.35637 2.27269,-16.03287 19.74236,-23.35093 28.67288,-12.01136 4.38052,5.56154 3.79732,5.305 12.04064,5.305 6.13781,0 7.94595,-0.26502 9.30109,-1.36207 l 1.68179,-1.36208 -1.62401,-4.34122 c -5.47911,-14.64538 -24.09207,-23.64292 -41.24511,-19.93728 m -80.12198,15.74936 c -4.98375,2.18333 -9.63005,9.35887 -9.63005,14.87265 v 1.80428 l 16.37108,-0.20801 16.37108,-0.20801 -0.26348,-2.69641 c -1.10938,-11.37578 -12.46205,-18.11527 -22.84863,-13.5645 m -187.21504,2.67484 c -14.81641,6.73102 -13.74478,36.65889 1.49227,41.68732 14.40501,4.75416 25.48495,-4.45293 25.4734,-21.16761 -0.0116,-17.52823 -12.54911,-27.06891 -26.96567,-20.51971 m -86.52096,27.05966 c -7.98139,1.8898 -8.64162,11.88656 -1.03774,15.707 10.62926,5.33966 23.23692,-2.62708 23.23692,-14.68313 v -1.7858 l -9.82265,0.0786 c -5.40207,0.0439 -10.97209,0.3513 -12.37653,0.68334"
         stroke="none"
         fill="#121112"
         fill-rule="evenodd"
         id="path54"
         style="stroke-width:0.770404" />
      <path
         d="m 582.46128,184.68562 c -14.55062,0.76578 -70.21229,3.41212 -112.09375,5.32811 -47.70339,2.18333 -47.66641,2.17639 -52.77188,9.88428 -3.29271,4.97065 -3.4152,6.58927 -2.40828,31.71444 4.58544,114.41728 7.69248,187.73506 8.1917,193.28659 0.72649,8.08924 5.61624,14.83798 12.36421,17.06521 3.36666,1.11093 1.36516,1.17641 83.54489,-2.7434 30.71985,-1.46608 63.65461,-2.96914 73.18835,-3.34124 28.26612,-1.10322 32.40781,-4.76572 31.30305,-27.67984 -0.52311,-10.84343 -2.91521,-67.44962 -4.35278,-102.99681 -3.75572,-92.90068 -4.56156,-108.22786 -5.82348,-110.73398 -3.29579,-6.54689 -10.25254,-10.78334 -17.22238,-10.48828 -1.51153,0.0647 -7.77568,0.38135 -13.91965,0.70492 m -67.5621,58.69244 c -0.8667,0.95376 -4.43444,8.4937 -7.92745,16.75628 -7.91821,18.72851 -10.39198,23.6591 -12.12616,24.16987 -3.19409,0.94221 -11.54527,2.09627 -25.41639,3.51305 -25.55506,2.61012 -25.76076,4.40285 -2.832,24.67911 20.22156,17.88184 18.36719,12.20705 13.35418,40.85682 -3.30195,18.87027 -3.04772,20.8009 2.74186,20.8009 2.46067,0 19.60755,-10.07765 31.10197,-18.27937 7.36737,-5.25723 7.53455,-5.21948 26.65212,5.92903 26.43024,15.41346 28.19138,14.2517 21.1368,-13.93892 -2.16099,-8.63391 -4.10549,-17.60449 -4.32274,-19.93496 l -0.39368,-4.23722 15.11224,-14.5198 c 8.31189,-7.98601 15.31486,-15.32796 15.56293,-16.31561 1.31662,-5.24645 -1.75729,-6.92439 -13.94123,-7.61005 -34.03181,-1.91523 -31.72522,-0.6664 -42.10872,-22.80241 -10.42588,-22.22692 -12.03756,-24.0782 -16.59373,-19.06672 m 55.58848,318.75454 c 0,18.00818 0.10092,25.37556 0.22419,16.37108 0.12326,-9.00371 0.12326,-23.73768 0,-32.74216 -0.12327,-9.00371 -0.22419,-1.63711 -0.22419,16.37108 m 113.66691,6.93363 -16.56368,0.43143 16.32562,0.16949 c 10.23944,0.10631 16.50282,-0.11788 16.80174,-0.60092 0.26193,-0.42372 0.36902,-0.69413 0.23805,-0.60091 -0.13097,0.0932 -7.69171,0.36363 -16.80173,0.60091 m -369.45866,23.88252 c 0,10.80491 0.10785,15.22549 0.24036,9.82264 0.13251,-5.40284 0.13251,-14.24245 0,-19.64529 -0.13251,-5.40284 -0.24036,-0.98227 -0.24036,9.82265 m 365.02884,-10.20939 c 6.674,0.12865 17.59371,0.12865 24.26771,0 6.67401,-0.12789 1.21339,-0.23344 -12.13386,-0.23344 -13.34724,0 -18.80786,0.10555 -12.13385,0.23344 m -334.25353,19.06903 c 0.002,5.08466 0.12635,7.0646 0.27658,4.39978 0.151,-2.66483 0.15023,-6.82501 -0.002,-9.24485 -0.15254,-2.41984 -0.27581,-0.23959 -0.27427,4.84507 m 230.24902,-5.2087 c 2.43679,0.15254 6.42286,0.15254 8.85965,0 2.43678,-0.15254 0.44298,-0.27812 -4.42983,-0.27812 -4.8728,0 -6.8666,0.12558 -4.42982,0.27812"
         stroke="none"
         fill="#308ad5"
         fill-rule="evenodd"
         id="path56"
         style="stroke-width:0.770404" />
    </g>
  </g>
</svg>
