<?xml version="1.0" encoding="UTF-8" standalone="no"?>
<!-- Created with Inkscape (http://www.inkscape.org/) -->

<svg
   width="2048"
   height="2048"
   viewBox="0 0 541.86665 541.86668"
   version="1.1"
   id="svg5"
   sodipodi:docname="snapdeck_logo.svg"
   inkscape:version="1.1.2 (0a00cf5339, 2022-02-04)"
   xmlns:inkscape="http://www.inkscape.org/namespaces/inkscape"
   xmlns:sodipodi="http://sodipodi.sourceforge.net/DTD/sodipodi-0.dtd"
   xmlns="http://www.w3.org/2000/svg"
   xmlns:svg="http://www.w3.org/2000/svg">
  <sodipodi:namedview
     id="namedview7"
     pagecolor="#ffffff"
     bordercolor="#666666"
     borderopacity="1.0"
     inkscape:pageshadow="2"
     inkscape:pageopacity="0.0"
     inkscape:pagecheckerboard="0"
     inkscape:document-units="px"
     showgrid="false"
     inkscape:zoom="0.30185925"
     inkscape:cx="-472.07432"
     inkscape:cy="742.0677"
     inkscape:window-width="3072"
     inkscape:window-height="1691"
     inkscape:window-x="3072"
     inkscape:window-y="0"
     inkscape:window-maximized="1"
     inkscape:current-layer="layer1"
     units="px" />
  <defs
     id="defs2" />
  <g
     inkscape:label="Layer 1"
     inkscape:groupmode="layer"
     id="layer1">
    <g
       id="g67"
       transform="matrix(1.3349514,0,0,1.3349514,-455.87102,-113.8375)"
       inkscape:export-filename="/home/alex/snapdeck_logo_rgb.png"
       inkscape:export-xdpi="503.29105"
       inkscape:export-ydpi="503.29105">
      <path
         d="m 421.58095,110.14752 c -2.25343,2.39904 0.87749,23.8725 5.7318,39.31139 0.72495,2.30736 5.31194,3.8551 7.83732,2.64403 6.09433,-12.38659 -2.08171,-53.15532 -13.56912,-41.95542 m -51.04002,12.02523 c -4.22027,4.22027 -4.19947,4.2534 15.31023,25.01886 14.58837,15.52749 15.81562,16.64226 18.33176,16.64226 3.27191,0 6.47833,-2.85126 6.47833,-5.76031 0,-2.15636 -0.35516,-2.58393 -17.62222,-21.20382 -17.67306,-19.05824 -17.95349,-19.2416 -22.4981,-14.69699 m 111.21779,8.88122 c -14.47049,4.52226 -19.12373,12.72167 -22.62444,39.86685 l -0.96378,7.47214 -3.91673,0.37981 c -2.15405,0.20955 -9.84422,0.69799 -17.08833,1.08473 -21.09288,1.12787 -30.63356,7.70173 -34.18666,23.55586 -0.72649,3.24263 1.35745,63.46509 5.33582,154.17705 0.40908,9.32188 1.11708,26.65597 1.57393,38.52019 1.43989,37.40233 2.15174,40.91691 9.9644,49.17718 9.2487,9.7795 10.76948,9.93127 71.3155,7.10928 24.15216,-1.12633 53.44676,-2.47531 65.09912,-2.99764 l 21.1861,-0.95068 25.80853,7.96752 c 41.35065,12.76636 44.11562,13.28022 54.39204,10.10615 10.23404,-3.16096 15.83796,-10.53681 20.70152,-27.24455 0.99074,-3.40365 6.14243,-21.0952 11.44743,-39.31525 5.30577,-18.22004 16.0606,-55.31498 23.901,-82.43319 7.83963,-27.11822 16.9381,-58.49291 20.21925,-69.72154 11.2217,-38.41079 6.17401,-51.84278 -21.29858,-56.66859 l -7.6555,-1.34435 0.46532,-3.95603 c 0.9476,-8.06843 -3.69871,-18.98968 -10.18551,-23.93721 -6.53533,-4.98451 -8.31728,-5.37434 -50.77037,-11.10537 -22.03355,-2.97453 -65.63455,-8.88507 -96.89137,-13.13461 -59.77794,-8.12622 -60.68008,-8.21713 -65.82869,-6.60775 m 0.45762,13.36111 c -6.40205,3.34432 -7.91204,6.47293 -10.1154,20.9596 l -1.81661,11.94126 2.44603,0.23343 c 2.12863,0.20262 49.4892,-1.89288 103.18248,-4.56541 22.50735,-1.12017 28.80463,-0.77426 34.36926,1.88903 7.26259,3.47606 16.05752,14.5275 16.08448,20.21231 0.007,1.48303 1.19182,1.76731 17.53439,4.21103 18.88799,2.8243 20.9935,3.61935 20.9935,7.92668 0,6.26724 -3.51227,6.89434 -22.3417,3.99069 -6.86892,-1.0593 -13.02676,-1.92601 -13.68237,-1.92601 -1.12942,0 -1.00153,18.70078 0.13636,19.8379 0.18721,0.18721 6.50452,1.312 14.03752,2.49919 14.97434,2.35974 16.45737,3.06543 16.45737,7.82884 0,6.03226 -2.42831,6.60159 -17.56752,4.11704 -6.45444,-1.05931 -12.09457,-1.92601 -12.53216,-1.92601 -0.52079,0 -0.64097,2.20412 -0.34822,6.35583 0.24653,3.49609 1.14328,23.34323 1.99304,44.10561 4.41364,107.8727 5.21794,124.60356 6.02995,125.41557 3.25495,3.25495 15.59913,7.7e-4 19.93034,-5.25339 3.68407,-4.46988 3.26189,-2.21568 13.69624,-73.16755 3.61396,-24.57588 8.82651,-59.93741 11.58379,-78.58118 15.2563,-103.15783 22.49887,-89.67499 -53.60161,-99.79116 -28.60124,-3.80195 -71.24309,-9.5091 -94.75966,-12.68239 -49.17872,-6.63703 -46.33747,-6.43749 -51.7095,-3.63091 m -129.92935,23.01581 c -3.07392,1.23727 -3.74725,7.37507 -1.0701,9.751 5.89128,5.22873 35.50637,15.02287 38.26133,12.65388 6.12317,-5.26725 3.11398,-8.20865 -16.75088,-16.37185 -14.89576,-6.12163 -17.96659,-7.02839 -20.44035,-6.03303 M 703.01867,203.428 c -0.20338,0.89213 -2.64402,17.04981 -5.42287,35.90544 -26.57276,180.26522 -24.88404,169.6637 -28.04655,176.0881 -5.1879,10.53912 -12.4998,14.58682 -26.34703,14.58682 h -9.75177 l -1.41909,2.6525 c -3.13246,5.85199 -8.91742,10.27873 -17.83407,13.6477 -4.8705,1.83973 33.49561,11.2217 38.85839,9.50216 9.68398,-3.10473 7.58771,2.17408 30.28072,-76.2638 52.53229,-181.57954 47.86133,-162.34333 41.28439,-170.02734 -4.44908,-5.19791 -20.75775,-9.79645 -21.60212,-6.09158 m -188.11949,39.95006 c -0.8667,0.95376 -4.43444,8.4937 -7.92745,16.75628 -7.91821,18.72851 -10.39198,23.6591 -12.12616,24.16987 -3.19409,0.94221 -11.54527,2.09627 -25.41639,3.51305 -25.55506,2.61012 -25.76076,4.40285 -2.832,24.67911 20.22156,17.88184 18.36719,12.20705 13.35418,40.85682 -3.30195,18.87027 -3.04772,20.8009 2.74186,20.8009 2.46067,0 19.60755,-10.07765 31.10197,-18.27937 7.36737,-5.25723 7.53455,-5.21948 26.65212,5.92903 26.43024,15.41346 28.19138,14.2517 21.1368,-13.93892 -2.16099,-8.63391 -4.10549,-17.60449 -4.32274,-19.93496 l -0.39368,-4.23722 15.11224,-14.5198 c 8.31189,-7.98601 15.31486,-15.32796 15.56293,-16.31561 1.31662,-5.24645 -1.75729,-6.92439 -13.94123,-7.61005 -34.03181,-1.91523 -31.72522,-0.6664 -42.10872,-22.80241 -10.42588,-22.22692 -12.03756,-24.0782 -16.59373,-19.06672"
         stroke="none"
         fill="#faf7f5"
         fill-rule="evenodd"
         id="path52"
         style="fill:#ffffff;stroke-width:0.770404"
         sodipodi:nodetypes="ccccccsscccccccccccccccssccccccsscccccccssssssscsssscsccsscccccccccsscccccsccccsccscccccscscc"
         inkscape:export-filename="/home/alex/snapdeck_logo.png"
         inkscape:export-xdpi="96"
         inkscape:export-ydpi="96" />
      <path
         d="m 421.79743,110.25615 c -2.68023,2.67946 2.79657,35.10652 6.78495,40.17732 3.0454,3.87205 9.8134,1.45837 9.8134,-3.4984 0,-20.25006 -10.28951,-42.98853 -16.59835,-36.67892 m -49.64096,10.65391 c -6.45213,3.26497 -5.05154,6.00144 12.92198,25.24228 15.7432,16.85258 17.5498,18.31789 21.39642,17.35257 7.58232,-1.9029 5.59082,-5.99682 -12.27715,-25.23534 -17.50434,-18.84716 -18.12837,-19.33868 -22.04125,-17.35951 m 110.17775,10.21709 c -13.85957,3.86435 -18.75857,11.46592 -22.31629,34.62657 l -2.01229,13.10303 -16.16076,0.82972 c -24.552,1.25961 -31.86929,5.06695 -37.43623,19.47427 -2.36514,6.12085 -1.95837,19.64452 6.30421,209.66152 1.86977,43.00547 6.9606,46.81512 59.27795,44.3583 15.03751,-0.70569 45.3683,-2.10936 67.40185,-3.11936 l 40.06099,-1.83664 25.80853,7.96289 c 41.20119,12.71089 42.11566,12.91351 50.51383,11.1801 13.99515,-2.88902 18.95424,-9.28337 26.00498,-33.53028 61.33954,-210.95195 61.05218,-209.91961 60.29025,-216.63676 -1.81353,-15.97817 -10.2379,-22.97036 -32.22676,-26.74688 l -2.88901,-0.49614 v -6.09928 c 0,-20.54821 -8.00064,-25.76539 -47.76503,-31.14357 -14.61841,-1.97763 -41.65958,-5.64398 -60.09149,-8.14779 -119.33477,-16.21161 -109.11536,-15.01517 -114.76473,-13.4397 m 1.13018,12.20551 c -7.22254,3.1548 -9.02066,6.64088 -11.56916,22.43416 -2.3451,14.53058 -6.76414,12.71397 26.97723,11.0915 111.6315,-5.3674 103.78879,-5.22565 110.8403,-1.99766 7.54841,3.45603 13.98514,10.87271 16.00436,18.44116 0.53698,2.01306 1.16485,3.66481 1.39443,3.67097 6.24336,0.1718 35.21593,5.53073 36.04719,6.66707 6.04382,8.26258 0.2319,10.43589 -19.9365,7.45597 l -15.30715,-2.26191 0.008,7.73871 c 0.005,4.25571 0.21109,8.96288 0.45916,10.459 l 0.44992,2.72184 13.97974,2.04696 c 15.16232,2.21953 16.7193,2.91367 16.66461,7.42592 -0.0693,5.75723 -3.16405,6.47139 -17.9065,4.13014 -14.84568,-2.35744 -13.20934,-7.57769 -11.32647,36.12577 0.88288,20.50198 2.55234,59.8804 3.70872,87.5063 1.15638,27.62668 2.31429,50.44219 2.57392,50.70181 2.69487,2.69488 14.07836,0.6795 18.44577,-3.26651 5.48836,-4.95755 5.58235,-5.30885 10.66701,-39.88457 1.74497,-11.86422 6.09544,-41.33216 9.6678,-65.48432 23.68915,-160.16231 30.09967,-138.18808 -43.15493,-147.92907 -27.11822,-3.60549 -52.77266,-7.05998 -57.00988,-7.6763 -59.4898,-8.65471 -87.85915,-11.78563 -91.67804,-10.11694 M 351.8289,168.51253 c -2.24958,1.76885 -2.76498,5.58235 -1.06701,7.89433 3.6494,4.97065 36.25982,15.6885 39.09799,12.85034 5.16555,-5.16556 2.48686,-7.59696 -17.31252,-15.71624 -17.80634,-7.30189 -17.82406,-7.30574 -20.71846,-5.02843 m 230.63191,16.17309 c -14.55062,0.76578 -70.21229,3.41212 -112.09375,5.32811 -47.70339,2.18333 -47.66641,2.17639 -52.77188,9.88428 -3.29271,4.97065 -3.4152,6.58927 -2.40828,31.71444 4.58544,114.41728 7.69248,187.73506 8.1917,193.28659 0.72649,8.08924 5.61624,14.83798 12.36421,17.06521 3.36666,1.11093 1.36516,1.17641 83.54489,-2.7434 30.71985,-1.46608 63.65461,-2.96914 73.18835,-3.34124 28.26612,-1.10322 32.40781,-4.76572 31.30305,-27.67984 -0.52311,-10.84343 -2.91521,-67.44962 -4.35278,-102.99681 -3.75572,-92.90068 -4.56156,-108.22786 -5.82348,-110.73398 -3.29579,-6.54689 -10.25254,-10.78334 -17.22238,-10.48828 -1.51153,0.0647 -7.77568,0.38135 -13.91965,0.70492 m 119.5343,23.63907 c -2.624,18.46658 -26.64056,180.10498 -28.28229,190.34442 -4.03461,25.17063 -16.72778,35.5341 -37.73823,30.81306 -2.17639,-0.48843 -2.4676,-0.28428 -4.17251,2.92908 -2.4599,4.63783 -9.17859,10.64236 -13.69701,12.24171 -2.01999,0.71494 -4.28498,1.52617 -5.03381,1.80198 -0.85977,0.3174 4.248,2.18178 13.86726,5.06309 30.95483,9.27027 33.49485,7.86968 42.5209,-23.43568 2.50381,-8.6863 12.23709,-42.31442 21.62831,-74.72916 40.38071,-139.37451 38.48475,-132.31068 36.99787,-137.83447 -0.99921,-3.71104 -5.87664,-9.47289 -9.08999,-10.73943 -1.77964,-0.70107 -13.88884,-3.19563 -15.51208,-3.19563 -0.29199,0 -0.96224,3.03385 -1.48842,6.74103"
         stroke="none"
         fill="#121112"
         fill-rule="evenodd"
         id="path54"
         style="stroke-width:0.770404"
         sodipodi:nodetypes="ccsccccccccccsccccccccscscccccccscccccccccccssccccccccscccccscccscccccccccsccccccsc"
         inkscape:export-filename="/home/alex/snapdeck_logo.png"
         inkscape:export-xdpi="96"
         inkscape:export-ydpi="96" />
      <path
         d="m 582.46128,184.68562 c -14.55062,0.76578 -70.21229,3.41212 -112.09375,5.32811 -47.70339,2.18333 -47.66641,2.17639 -52.77188,9.88428 -3.29271,4.97065 -3.4152,6.58927 -2.40828,31.71444 4.58544,114.41728 7.69248,187.73506 8.1917,193.28659 0.72649,8.08924 5.61624,14.83798 12.36421,17.06521 3.36666,1.11093 1.36516,1.17641 83.54489,-2.7434 30.71985,-1.46608 63.65461,-2.96914 73.18835,-3.34124 28.26612,-1.10322 32.40781,-4.76572 31.30305,-27.67984 -0.52311,-10.84343 -2.91521,-67.44962 -4.35278,-102.99681 -3.75572,-92.90068 -4.56156,-108.22786 -5.82348,-110.73398 -3.29579,-6.54689 -10.25254,-10.78334 -17.22238,-10.48828 -1.51153,0.0647 -7.77568,0.38135 -13.91965,0.70492 m -67.5621,58.69244 c -0.8667,0.95376 -4.43444,8.4937 -7.92745,16.75628 -7.91821,18.72851 -10.39198,23.6591 -12.12616,24.16987 -3.19409,0.94221 -11.54527,2.09627 -25.41639,3.51305 -25.55506,2.61012 -25.76076,4.40285 -2.832,24.67911 20.22156,17.88184 18.36719,12.20705 13.35418,40.85682 -3.30195,18.87027 -3.04772,20.8009 2.74186,20.8009 2.46067,0 19.60755,-10.07765 31.10197,-18.27937 7.36737,-5.25723 7.53455,-5.21948 26.65212,5.92903 26.43024,15.41346 28.19138,14.2517 21.1368,-13.93892 -2.16099,-8.63391 -4.10549,-17.60449 -4.32274,-19.93496 l -0.39368,-4.23722 15.11224,-14.5198 c 8.31189,-7.98601 15.31486,-15.32796 15.56293,-16.31561 1.31662,-5.24645 -1.75729,-6.92439 -13.94123,-7.61005 -34.03181,-1.91523 -31.72522,-0.6664 -42.10872,-22.80241 -10.42588,-22.22692 -12.03756,-24.0782 -16.59373,-19.06672"
         stroke="none"
         fill="#308ad5"
         fill-rule="evenodd"
         id="path56"
         style="stroke-width:0.770404"
         sodipodi:nodetypes="cccscccsccccccccsccscccccscscc"
         inkscape:export-filename="/home/alex/snapdeck_logo.png"
         inkscape:export-xdpi="96"
         inkscape:export-ydpi="96" />
    </g>
  </g>
</svg>
